<svg width="699.6px" height="149.5px" xmlns="http://www.w3.org/2000/svg" viewBox="-99.8016357421875 0.23809509277343466 699.603271484375 149.52380981445313" style="background: rgba(0, 0, 0, 0)" preserveAspectRatio="xMidYMid"><defs><linearGradient id="editing-gradow-gradient" x1="0" x2="1" y1="0.5" y2="0.5" gradientUnits="objectBoundingBox"><stop offset="0" stop-color="#d32fb1"></stop><stop offset="1" stop-color="#00ffff"></stop></linearGradient><filter id="editing-gradow-filter" x="-100%" y="-100%" width="300%" height="300%"><feFlood flood-color="#fffcd9" result="flood"></feFlood><feComposite operator="in" in2="SourceAlpha" in="flood" result="shadow"></feComposite><feOffset dx="-2.4" dy="-4" in="SourceGraphic" result="offset-1"></feOffset><feOffset dx="2.4" dy="4" in="shadow" result="offset-2"></feOffset><feMerge><feMergeNode in="offset-2"></feMergeNode><feMergeNode in="offset-1"></feMergeNode></feMerge></filter></defs><g filter="url(#editing-gradow-filter)"><g transform="matrix(1.4,0,0,1.7,-63.4,229.1)"><path d="M 10.8 -69.2 L 10.8 -69.2 L -7 -69.2 L -7 -69.2 Q -7.9 -69.2 -7.9 -70.1 L -7.9 -70.1 L -7.9 -73.9 L -7.9 -73.9 Q -7.9 -74.7 -7 -74.7 L -7 -74.7 L -1.3 -74.7 L -1.3 -116.8 L -7 -116.8 L -7 -116.8 Q -7.9 -116.8 -7.9 -117.7 L -7.9 -117.7 L -7.9 -121.4 L -7.9 -121.4 Q -7.9 -122.3 -7 -122.3 L -7 -122.3 L 10.8 -122.3 L 10.8 -122.3 Q 11.8 -122.3 11.8 -121.4 L 11.8 -121.4 L 11.8 -117.7 L 11.8 -117.7 Q 11.8 -116.8 10.8 -116.8 L 10.8 -116.8 L 5.1 -116.8 L 5.1 -74.7 L 10.8 -74.7 L 10.8 -74.7 Q 11.8 -74.7 11.8 -73.9 L 11.8 -73.9 L 11.8 -70.1 L 11.8 -70.1 Q 11.8 -69.2 10.8 -69.2 Z M 80.1 -69.2 L 80.1 -69.2 L 73.1 -69.2 L 73.1 -69.2 Q 71.4 -69.2 70.6 -69.9 L 70.6 -69.9 L 70.6 -69.9 Q 69.8 -70.6 69.8 -72.3 L 69.8 -72.3 L 69.8 -91.8 L 69.8 -91.8 Q 69.8 -96.1 67.8 -98.4 L 67.8 -98.4 L 67.8 -98.4 Q 65.8 -100.8 61.8 -100.8 L 61.8 -100.8 L 61.8 -100.8 Q 55.9 -100.8 52.6 -95.7 L 52.6 -95.7 L 52.6 -95.7 Q 53 -94.4 53 -92.7 L 53 -92.7 L 53 -74.2 L 57.2 -74.2 L 57.2 -74.2 Q 58.1 -74.2 58.1 -73.3 L 58.1 -73.3 L 58.1 -70.1 L 58.1 -70.1 Q 58.1 -69.2 57.2 -69.2 L 57.2 -69.2 L 43.1 -69.2 L 43.1 -69.2 Q 42.1 -69.2 42.1 -70.1 L 42.1 -70.1 L 42.1 -73.3 L 42.1 -73.3 Q 42.1 -74.2 43.1 -74.2 L 43.1 -74.2 L 47 -74.2 L 47 -91.8 L 47 -91.8 Q 47 -96.1 44.9 -98.4 L 44.9 -98.4 L 44.9 -98.4 Q 42.8 -100.8 38.8 -100.8 L 38.8 -100.8 L 38.8 -100.8 Q 35.8 -100.8 34.2 -99.9 L 34.2 -99.9 L 34.2 -99.9 Q 32.6 -98.9 31.8 -98.2 L 31.8 -98.2 L 31.8 -98.2 Q 31 -97.5 30.5 -96.9 L 30.5 -96.9 L 30.5 -96.9 Q 29.6 -95.7 29 -94.4 L 29 -94.4 L 29 -74.2 L 32.6 -74.2 L 32.6 -74.2 Q 33.5 -74.2 33.5 -73.3 L 33.5 -73.3 L 33.5 -70.1 L 33.5 -70.1 Q 33.5 -69.2 32.6 -69.2 L 32.6 -69.2 L 18.8 -69.2 L 18.8 -69.2 Q 17.8 -69.2 17.8 -70.1 L 17.8 -70.1 L 17.8 -73.3 L 17.8 -73.3 Q 17.8 -74.2 18.8 -74.2 L 18.8 -74.2 L 22.9 -74.2 L 22.9 -100.6 L 18.8 -100.6 L 18.8 -100.6 Q 17.8 -100.6 17.8 -101.5 L 17.8 -101.5 L 17.8 -104.7 L 17.8 -104.7 Q 17.8 -105.6 18.8 -105.6 L 18.8 -105.6 L 26 -105.6 L 26 -105.6 Q 27.3 -105.6 27.8 -105.1 L 27.8 -105.1 L 27.8 -105.1 Q 28.4 -104.6 28.4 -103.4 L 28.4 -103.4 L 28.3 -99.7 L 28.5 -99.7 L 28.5 -99.7 Q 32.3 -106.1 40.4 -106.1 L 40.4 -106.1 L 40.4 -106.1 Q 48.5 -106.1 51.5 -100 L 51.5 -100 L 51.5 -100 Q 55.7 -106.1 63.4 -106.1 L 63.4 -106.1 L 63.4 -106.1 Q 69.3 -106.1 72.6 -102.6 L 72.6 -102.6 L 72.6 -102.6 Q 75.9 -99.2 75.9 -93.2 L 75.9 -93.2 L 76 -74.2 L 80.1 -74.2 L 80.1 -74.2 Q 81.1 -74.2 81.1 -73.3 L 81.1 -73.3 L 81.1 -70.1 L 81.1 -70.1 Q 81.1 -69.2 80.1 -69.2 Z M 122.3 -69.2 L 122.3 -69.2 L 115.9 -69.2 L 115.9 -69.2 Q 112.7 -69.2 112.7 -72.3 L 112.7 -72.3 L 112.7 -76.1 L 112.5 -76.1 L 112.5 -76.1 Q 107.1 -68.6 98.1 -68.6 L 98.1 -68.6 L 98.1 -68.6 Q 92.8 -68.6 89.4 -71.4 L 89.4 -71.4 L 89.4 -71.4 Q 86 -74.2 86 -78.9 L 86 -78.9 L 86 -78.9 Q 86 -85 91.3 -87.8 L 91.3 -87.8 L 91.3 -87.8 Q 96.6 -90.7 105.8 -90.7 L 105.8 -90.7 L 112 -90.7 L 112 -91.5 L 112 -91.5 Q 112 -100.8 102.4 -100.8 L 102.4 -100.8 L 102.4 -100.8 Q 97.9 -100.8 95.9 -99.9 L 95.9 -99.9 L 95.9 -99.9 Q 93.9 -99.1 93 -98.6 L 93 -98.6 L 93 -98.6 Q 92.2 -98.1 91.7 -97.8 L 91.7 -97.8 L 91.7 -97.8 Q 90.6 -96.9 90.1 -97.6 L 90.1 -97.6 L 88 -100.2 L 88 -100.2 Q 87.5 -100.8 88.2 -101.4 L 88.2 -101.4 L 88.2 -101.4 Q 89.5 -103 93.4 -104.6 L 93.4 -104.6 L 93.4 -104.6 Q 97.3 -106.1 102.6 -106.1 L 102.6 -106.1 L 102.6 -106.1 Q 118.2 -106.1 118.2 -91.3 L 118.2 -91.3 L 118.2 -74.2 L 122.3 -74.2 L 122.3 -74.2 Q 123.2 -74.2 123.2 -73.3 L 123.2 -73.3 L 123.2 -70.1 L 123.2 -70.1 Q 123.2 -69.2 122.3 -69.2 Z M 112 -80.2 L 112 -86.2 L 106.2 -86.2 L 106.2 -86.2 Q 101.9 -86.2 99.1 -85.8 L 99.1 -85.8 L 99.1 -85.8 Q 96.3 -85.3 94.3 -83.8 L 94.3 -83.8 L 94.3 -83.8 Q 92.3 -82.4 92.3 -79.8 L 92.3 -79.8 L 92.3 -79.8 Q 92.3 -77.2 94.4 -75.5 L 94.4 -75.5 L 94.4 -75.5 Q 96.6 -73.9 100 -73.9 L 100 -73.9 L 100 -73.9 Q 107.1 -73.9 112 -80.2 L 112 -80.2 Z M 145 -51.9 L 145 -51.9 L 145 -51.9 Q 141.3 -51.9 139.4 -52.4 L 139.4 -52.4 L 139.4 -52.4 Q 137.5 -52.9 136.3 -53.3 L 136.3 -53.3 L 136.3 -53.3 Q 135.2 -53.7 134.4 -54.1 L 134.4 -54.1 L 134.4 -54.1 Q 133.6 -54.5 132.8 -55 L 132.8 -55 L 132.8 -55 Q 129.6 -57.1 130.4 -58.1 L 130.4 -58.1 L 132.3 -60.8 L 132.3 -60.8 Q 132.7 -61.5 133.6 -60.9 L 133.6 -60.9 L 133.6 -60.9 Q 133.6 -60.9 134 -60.6 L 134 -60.6 L 134 -60.6 Q 134.4 -60.2 134.9 -59.9 L 134.9 -59.9 L 134.9 -59.9 Q 135.3 -59.6 136 -59.2 L 136 -59.2 L 136 -59.2 Q 136.7 -58.8 137.6 -58.5 L 137.6 -58.5 L 137.6 -58.5 Q 138.4 -58.2 139.5 -57.9 L 139.5 -57.9 L 139.5 -57.9 Q 141.9 -57.2 144.9 -57.2 L 144.9 -57.2 L 144.9 -57.2 Q 150.2 -57.2 153.4 -59.8 L 153.4 -59.8 L 153.4 -59.8 Q 156.6 -62.3 156.6 -67.8 L 156.6 -67.8 L 156.6 -76.2 L 156.6 -76.2 Q 155.3 -73.1 152.2 -70.9 L 152.2 -70.9 L 152.2 -70.9 Q 149.2 -68.7 144.6 -68.7 L 144.6 -68.7 L 144.6 -68.7 Q 137 -68.7 132.5 -73.9 L 132.5 -73.9 L 132.5 -73.9 Q 127.9 -79.2 127.9 -87.5 L 127.9 -87.5 L 127.9 -87.5 Q 127.9 -95.9 132.6 -101 L 132.6 -101 L 132.6 -101 Q 137.2 -106.1 144.6 -106.1 L 144.6 -106.1 L 144.6 -106.1 Q 149.2 -106.1 152.3 -104 L 152.3 -104 L 152.3 -104 Q 155.5 -101.9 156.9 -98.9 L 156.9 -98.9 L 157 -98.9 L 156.9 -104.7 L 156.9 -104.7 Q 156.9 -105.6 157.8 -105.6 L 157.8 -105.6 L 166.6 -105.6 L 166.6 -105.6 Q 167.4 -105.6 167.4 -104.7 L 167.4 -104.7 L 167.4 -101.5 L 167.4 -101.5 Q 167.4 -100.6 166.6 -100.6 L 166.6 -100.6 L 162.6 -100.6 L 162.6 -67.8 L 162.6 -67.8 Q 162.6 -59.9 157.7 -55.9 L 157.7 -55.9 L 157.7 -55.9 Q 152.9 -51.9 145 -51.9 Z M 134 -87.4 L 134 -87.4 L 134 -87.4 Q 134 -81.3 137.3 -77.6 L 137.3 -77.6 L 137.3 -77.6 Q 140.5 -73.9 145.4 -73.9 L 145.4 -73.9 L 145.4 -73.9 Q 150.3 -73.9 153.5 -77.6 L 153.5 -77.6 L 153.5 -77.6 Q 156.7 -81.3 156.7 -87.5 L 156.7 -87.5 L 156.7 -87.5 Q 156.7 -93.7 153.5 -97.3 L 153.5 -97.3 L 153.5 -97.3 Q 150.3 -100.9 145.4 -100.9 L 145.4 -100.9 L 145.4 -100.9 Q 140.5 -100.9 137.3 -97.2 L 137.3 -97.2 L 137.3 -97.2 Q 134 -93.5 134 -87.4 Z M 204.5 -86.7 L 204.5 -86.7 L 177.9 -86.7 L 177.9 -86.7 Q 178.2 -80.5 181.8 -77.2 L 181.8 -77.2 L 181.8 -77.2 Q 185.4 -73.9 189.9 -73.9 L 189.9 -73.9 L 189.9 -73.9 Q 194.4 -73.9 197.6 -75.8 L 197.6 -75.8 L 197.6 -75.8 Q 200.8 -77.7 201.9 -79.6 L 201.9 -79.6 L 201.9 -79.6 Q 202.5 -80.3 203.3 -79.8 L 203.3 -79.8 L 205.3 -77.8 L 205.3 -77.8 Q 205.7 -77.3 205.7 -77 L 205.7 -77 L 205.7 -77 Q 205.7 -76.7 205.4 -76.2 L 205.4 -76.2 L 205.4 -76.2 Q 205 -75.6 204 -74.5 L 204 -74.5 L 204 -74.5 Q 203 -73.4 201.1 -72 L 201.1 -72 L 201.1 -72 Q 199.2 -70.6 196.2 -69.6 L 196.2 -69.6 L 196.2 -69.6 Q 193.2 -68.7 189.8 -68.7 L 189.8 -68.7 L 189.8 -68.7 Q 182 -68.7 176.8 -73.8 L 176.8 -73.8 L 176.8 -73.8 Q 171.6 -78.9 171.6 -87.5 L 171.6 -87.5 L 171.6 -87.5 Q 171.6 -96.1 176.8 -101.1 L 176.8 -101.1 L 176.8 -101.1 Q 182 -106.1 189.5 -106.1 L 189.5 -106.1 L 189.5 -106.1 Q 197 -106.1 201.3 -101.3 L 201.3 -101.3 L 201.3 -101.3 Q 205.6 -96.4 205.6 -88.2 L 205.6 -88.2 L 205.6 -88.2 Q 205.6 -87.9 205.6 -87.6 L 205.6 -87.6 L 205.6 -87.6 Q 205.6 -86.7 204.5 -86.7 Z M 199.4 -91.2 L 199.4 -91.2 Q 199.2 -95.8 196.5 -98.5 L 196.5 -98.5 L 196.5 -98.5 Q 193.9 -101.2 189.4 -101.2 L 189.4 -101.2 L 189.4 -101.2 Q 185 -101.2 181.8 -98.7 L 181.8 -98.7 L 181.8 -98.7 Q 178.6 -96.2 178 -91.2 L 178 -91.2 L 199.4 -91.2 Z M 282.8 -69.2 L 282.8 -69.2 L 278.9 -69.2 L 278.9 -69.2 Q 277.9 -69.2 277.9 -70.1 L 277.9 -70.1 L 278 -75.2 L 278 -75.2 Q 271.5 -68.7 260.7 -68.7 L 260.7 -68.7 L 260.7 -68.7 Q 249.8 -68.7 242.6 -76.2 L 242.6 -76.2 L 242.6 -76.2 Q 235.3 -83.8 235.3 -96.1 L 235.3 -96.1 L 235.3 -96.1 Q 235.3 -104.3 239 -110.5 L 239 -110.5 L 239 -110.5 Q 242.6 -116.7 248.3 -119.7 L 248.3 -119.7 L 248.3 -119.7 Q 254 -122.8 260.5 -122.8 L 260.5 -122.8 L 260.5 -122.8 Q 271.9 -122.8 276.8 -115.7 L 276.8 -115.7 L 276.7 -121.4 L 276.7 -121.4 Q 276.6 -122.3 277.6 -122.3 L 277.6 -122.3 L 281.8 -122.3 L 281.8 -122.3 Q 282.7 -122.3 282.7 -121.4 L 282.7 -121.4 L 282.7 -106.2 L 282.7 -106.2 Q 282.7 -105.3 281.8 -105.3 L 281.8 -105.3 L 277.1 -105.3 L 277.1 -105.3 Q 276.2 -105.3 276.2 -106.2 L 276.2 -106.2 L 276.2 -107.1 L 276.2 -107.1 Q 276.2 -110.3 271.8 -113.5 L 271.8 -113.5 L 271.8 -113.5 Q 267.3 -116.7 260.3 -116.7 L 260.3 -116.7 L 260.3 -116.7 Q 253.4 -116.7 247.8 -111 L 247.8 -111 L 247.8 -111 Q 242.2 -105.2 242.2 -95.6 L 242.2 -95.6 L 242.2 -95.6 Q 242.2 -86.1 247.8 -80.5 L 247.8 -80.5 L 247.8 -80.5 Q 253.4 -74.9 260.4 -74.9 L 260.4 -74.9 L 260.4 -74.9 Q 267.3 -74.9 271.4 -77.1 L 271.4 -77.1 L 271.4 -77.1 Q 275.4 -79.3 277.4 -82.4 L 277.4 -82.4 L 277.4 -88.1 L 263.6 -88.1 L 263.6 -88.1 Q 262.8 -88.1 262.8 -89.1 L 262.8 -89.1 L 262.8 -92.5 L 262.8 -92.5 Q 262.8 -93.4 263.6 -93.4 L 263.6 -93.4 L 282.8 -93.4 L 282.8 -93.4 Q 283.7 -93.4 283.7 -92.5 L 283.7 -92.5 L 283.7 -70.1 L 283.7 -70.1 Q 283.7 -69.2 282.8 -69.2 Z M 327.4 -69.2 L 327.4 -69.2 L 321 -69.2 L 321 -69.2 Q 317.8 -69.2 317.8 -72.3 L 317.8 -72.3 L 317.8 -76.1 L 317.7 -76.1 L 317.7 -76.1 Q 312.3 -68.6 303.2 -68.6 L 303.2 -68.6 L 303.2 -68.6 Q 297.9 -68.6 294.5 -71.4 L 294.5 -71.4 L 294.5 -71.4 Q 291.1 -74.2 291.1 -78.9 L 291.1 -78.9 L 291.1 -78.9 Q 291.1 -85 296.4 -87.8 L 296.4 -87.8 L 296.4 -87.8 Q 301.7 -90.7 310.9 -90.7 L 310.9 -90.7 L 317.1 -90.7 L 317.1 -91.5 L 317.1 -91.5 Q 317.1 -100.8 307.5 -100.8 L 307.5 -100.8 L 307.5 -100.8 Q 303 -100.8 301 -99.9 L 301 -99.9 L 301 -99.9 Q 299 -99.1 298.2 -98.6 L 298.2 -98.6 L 298.2 -98.6 Q 297.3 -98.1 296.9 -97.8 L 296.9 -97.8 L 296.9 -97.8 Q 295.8 -96.9 295.2 -97.6 L 295.2 -97.6 L 293.2 -100.2 L 293.2 -100.2 Q 292.7 -100.8 293.3 -101.4 L 293.3 -101.4 L 293.3 -101.4 Q 294.6 -103 298.5 -104.6 L 298.5 -104.6 L 298.5 -104.6 Q 302.4 -106.1 307.8 -106.1 L 307.8 -106.1 L 307.8 -106.1 Q 323.3 -106.1 323.3 -91.3 L 323.3 -91.3 L 323.3 -74.2 L 327.4 -74.2 L 327.4 -74.2 Q 328.3 -74.2 328.3 -73.3 L 328.3 -73.3 L 328.3 -70.1 L 328.3 -70.1 Q 328.3 -69.2 327.4 -69.2 Z M 317.1 -80.2 L 317.1 -86.2 L 311.3 -86.2 L 311.3 -86.2 Q 307 -86.2 304.2 -85.8 L 304.2 -85.8 L 304.2 -85.8 Q 301.4 -85.3 299.4 -83.8 L 299.4 -83.8 L 299.4 -83.8 Q 297.5 -82.4 297.5 -79.8 L 297.5 -79.8 L 297.5 -79.8 Q 297.5 -77.2 299.6 -75.5 L 299.6 -75.5 L 299.6 -75.5 Q 301.7 -73.9 305.1 -73.9 L 305.1 -73.9 L 305.1 -73.9 Q 312.3 -73.9 317.1 -80.2 L 317.1 -80.2 Z M 348.7 -69.2 L 348.7 -69.2 L 334.5 -69.2 L 334.5 -69.2 Q 333.6 -69.2 333.6 -70.1 L 333.6 -70.1 L 333.6 -73.3 L 333.6 -73.3 Q 333.6 -74.2 334.5 -74.2 L 334.5 -74.2 L 338.6 -74.2 L 338.6 -117.4 L 334.5 -117.4 L 334.5 -117.4 Q 333.6 -117.4 333.6 -118.3 L 333.6 -118.3 L 333.6 -121.4 L 333.6 -121.4 Q 333.6 -122.3 334.5 -122.3 L 334.5 -122.3 L 342.8 -122.3 L 342.8 -122.3 Q 344.8 -122.3 344.8 -120.5 L 344.8 -120.5 L 344.8 -74.2 L 348.7 -74.2 L 348.7 -74.2 Q 349.6 -74.2 349.6 -73.3 L 349.6 -73.3 L 349.6 -70.1 L 349.6 -70.1 Q 349.6 -69.2 348.7 -69.2 Z M 370.4 -69.2 L 370.4 -69.2 L 356.2 -69.2 L 356.2 -69.2 Q 355.3 -69.2 355.3 -70.1 L 355.3 -70.1 L 355.3 -73.3 L 355.3 -73.3 Q 355.3 -74.2 356.2 -74.2 L 356.2 -74.2 L 360.3 -74.2 L 360.3 -117.4 L 356.2 -117.4 L 356.2 -117.4 Q 355.3 -117.4 355.3 -118.3 L 355.3 -118.3 L 355.3 -121.4 L 355.3 -121.4 Q 355.3 -122.3 356.2 -122.3 L 356.2 -122.3 L 364.4 -122.3 L 364.4 -122.3 Q 366.4 -122.3 366.4 -120.5 L 366.4 -120.5 L 366.4 -74.2 L 370.4 -74.2 L 370.4 -74.2 Q 371.3 -74.2 371.3 -73.3 L 371.3 -73.3 L 371.3 -70.1 L 371.3 -70.1 Q 371.3 -69.2 370.4 -69.2 Z M 409.4 -86.7 L 409.4 -86.7 L 382.8 -86.7 L 382.8 -86.7 Q 383.1 -80.5 386.7 -77.2 L 386.7 -77.2 L 386.7 -77.2 Q 390.3 -73.9 394.8 -73.9 L 394.8 -73.9 L 394.8 -73.9 Q 399.3 -73.9 402.5 -75.8 L 402.5 -75.8 L 402.5 -75.8 Q 405.7 -77.7 406.8 -79.6 L 406.8 -79.6 L 406.8 -79.6 Q 407.4 -80.3 408.2 -79.8 L 408.2 -79.8 L 410.2 -77.8 L 410.2 -77.8 Q 410.6 -77.3 410.6 -77 L 410.6 -77 L 410.6 -77 Q 410.6 -76.7 410.3 -76.2 L 410.3 -76.2 L 410.3 -76.2 Q 409.9 -75.6 408.9 -74.5 L 408.9 -74.5 L 408.9 -74.5 Q 407.9 -73.4 406 -72 L 406 -72 L 406 -72 Q 404.1 -70.6 401.1 -69.6 L 401.1 -69.6 L 401.1 -69.6 Q 398.1 -68.7 394.7 -68.7 L 394.7 -68.7 L 394.7 -68.7 Q 386.9 -68.7 381.7 -73.8 L 381.7 -73.8 L 381.7 -73.8 Q 376.5 -78.9 376.5 -87.5 L 376.5 -87.5 L 376.5 -87.5 Q 376.5 -96.1 381.7 -101.1 L 381.7 -101.1 L 381.7 -101.1 Q 386.9 -106.1 394.4 -106.1 L 394.4 -106.1 L 394.4 -106.1 Q 401.9 -106.1 406.2 -101.3 L 406.2 -101.3 L 406.2 -101.3 Q 410.5 -96.4 410.5 -88.2 L 410.5 -88.2 L 410.5 -88.2 Q 410.5 -87.9 410.5 -87.6 L 410.5 -87.6 L 410.5 -87.6 Q 410.5 -86.7 409.4 -86.7 Z M 404.3 -91.2 L 404.3 -91.2 Q 404.1 -95.8 401.4 -98.5 L 401.4 -98.5 L 401.4 -98.5 Q 398.8 -101.2 394.3 -101.2 L 394.3 -101.2 L 394.3 -101.2 Q 389.9 -101.2 386.7 -98.7 L 386.7 -98.7 L 386.7 -98.7 Q 383.5 -96.2 382.9 -91.2 L 382.9 -91.2 L 404.3 -91.2 Z M 431.4 -69.2 L 431.4 -69.2 L 417.3 -69.2 L 417.3 -69.2 Q 416.3 -69.2 416.3 -70.1 L 416.3 -70.1 L 416.3 -73.3 L 416.3 -73.3 Q 416.3 -74.2 417.3 -74.2 L 417.3 -74.2 L 421.3 -74.2 L 421.3 -100.6 L 417.3 -100.6 L 417.3 -100.6 Q 416.3 -100.6 416.3 -101.5 L 416.3 -101.5 L 416.3 -104.7 L 416.3 -104.7 Q 416.3 -105.6 417.3 -105.6 L 417.3 -105.6 L 425.9 -105.6 L 425.9 -105.6 Q 426.9 -105.6 426.9 -104.7 L 426.9 -104.7 L 426.9 -95.5 L 427.1 -95.5 L 427.1 -95.5 Q 427.3 -96.6 428.7 -98.7 L 428.7 -98.7 L 428.7 -98.7 Q 430 -100.8 431.6 -102.2 L 431.6 -102.2 L 431.6 -102.2 Q 433.2 -103.5 436.2 -104.6 L 436.2 -104.6 L 436.2 -104.6 Q 439.2 -105.8 442.9 -105.8 L 442.9 -105.8 L 442.9 -105.8 Q 443.9 -105.8 443.9 -104.8 L 443.9 -104.8 L 443.9 -100.9 L 443.9 -100.9 Q 443.9 -99.9 442.9 -99.9 L 442.9 -99.9 L 441.4 -99.9 L 441.4 -99.9 Q 435 -99.9 431.3 -95.8 L 431.3 -95.8 L 431.3 -95.8 Q 427.5 -91.8 427.5 -86.6 L 427.5 -86.6 L 427.5 -74.2 L 431.4 -74.2 L 431.4 -74.2 Q 432.4 -74.2 432.4 -73.3 L 432.4 -73.3 L 432.4 -70.1 L 432.4 -70.1 Q 432.4 -69.2 431.4 -69.2 Z M 464.9 -70 L 464 -70 L 464 -70 Q 462.8 -70 462 -71.9 L 462 -71.9 L 450.7 -100.6 L 446.6 -100.6 L 446.6 -100.6 Q 445.8 -100.6 445.8 -101.5 L 445.8 -101.5 L 445.8 -104.7 L 445.8 -104.7 Q 445.8 -105.6 446.6 -105.6 L 446.6 -105.6 L 460 -105.6 L 460 -105.6 Q 461 -105.6 461 -104.7 L 461 -104.7 L 461 -101.5 L 461 -101.5 Q 461 -100.6 460 -100.6 L 460 -100.6 L 457 -100.6 L 466.6 -75.6 L 466.7 -75.6 L 475.6 -100.6 L 472.3 -100.6 L 472.3 -100.6 Q 471.4 -100.6 471.4 -101.5 L 471.4 -101.5 L 471.4 -104.7 L 471.4 -104.7 Q 471.4 -105.6 472.3 -105.6 L 472.3 -105.6 L 486 -105.6 L 486 -105.6 Q 486.9 -105.6 486.9 -104.7 L 486.9 -104.7 L 486.9 -101.5 L 486.9 -101.5 Q 486.9 -100.6 486 -100.6 L 486 -100.6 L 481.9 -100.6 L 468.7 -64.5 L 468.7 -64.5 Q 466.3 -57.9 463.6 -54.9 L 463.6 -54.9 L 463.6 -54.9 Q 461 -51.9 456.5 -51.9 L 456.5 -51.9 L 456.5 -51.9 Q 451.9 -51.9 448.6 -54.8 L 448.6 -54.8 L 448.6 -54.8 Q 447.9 -55.5 448.4 -56.1 L 448.4 -56.1 L 450.3 -58.5 L 450.3 -58.5 Q 450.9 -59 451.6 -58.5 L 451.6 -58.5 L 451.6 -58.5 Q 453.4 -57.1 455.8 -57.1 L 455.8 -57.1 L 455.8 -57.1 Q 458.3 -57.1 459.9 -58.8 L 459.9 -58.8 L 459.9 -58.8 Q 461.4 -60.5 462.9 -64.5 L 462.9 -64.5 L 464.9 -70 Z" fill="url(#editing-gradow-gradient)"></path></g></g><style>text {
  font-size: 64px;
  font-family: Arial Black;
  dominant-baseline: central;
  text-anchor: middle;
}</style></svg>